<svg width="1440" height="471" viewBox="0 0 1440 471" fill="none" xmlns="http://www.w3.org/2000/svg">
<g clip-path="url(#clip0_6050_2546)">
<g filter="url(#filter0_f_6050_2546)">
<ellipse cx="1509.27" cy="120.006" rx="664.985" ry="673.184" transform="rotate(51.5415 1509.27 120.006)" fill="url(#paint0_linear_6050_2546)"/>
</g>
<g filter="url(#filter1_f_6050_2546)">
<ellipse cx="1236.05" cy="734.674" rx="449.681" ry="454.849" transform="rotate(-180 1236.05 734.674)" fill="#FD9AC0"/>
</g>
<g filter="url(#filter2_f_6050_2546)">
<ellipse cx="1447.08" cy="830.207" rx="367.337" ry="371.793" transform="rotate(-180 1447.08 830.207)" fill="#FFC1DF"/>
</g>
<g filter="url(#filter3_f_6050_2546)">
<path d="M658.627 -182.534C518.219 167.785 740.053 599.066 1375.14 718.196C785.867 477.794 779.62 79.2878 834.364 -217.696L658.627 -182.534Z" fill="white" fill-opacity="0.85"/>
</g>
<g filter="url(#filter4_f_6050_2546)">
<path d="M516.562 -17.4321C361.602 198.71 440.933 531.134 855.528 719.389C492.666 455.841 555.362 182.077 642.735 -11.9606L516.562 -17.4321Z" fill="white" fill-opacity="0.85"/>
</g>
<g filter="url(#filter5_f_6050_2546)">
<path d="M993.121 -167.495C885.231 111.981 1065.68 452.043 1570.96 540.155C1100.81 355.323 1091.81 39.0884 1132.25 -197.185L993.121 -167.495Z" fill="url(#paint1_linear_6050_2546)" fill-opacity="0.7"/>
</g>
<g filter="url(#filter6_f_6050_2546)">
<path d="M1209.51 -208.957C1165.29 87.3393 1415.68 379.759 1928.01 355.342C1428.83 277.699 1845.53 -120.79 1833.37 -360.19L1209.51 -208.957Z" fill="white" fill-opacity="0.8"/>
</g>
<g filter="url(#filter7_f_6050_2546)">
<ellipse cx="664.985" cy="673.184" rx="664.985" ry="673.184" transform="matrix(-0.621948 0.783059 0.783059 0.621948 -257.828 -819.402)" fill="url(#paint2_linear_6050_2546)"/>
</g>
<g filter="url(#filter8_f_6050_2546)">
<ellipse cx="449.681" cy="454.849" rx="449.681" ry="454.849" transform="matrix(1 0 0 -1 -320.734 1189.52)" fill="#39EDC1"/>
</g>
<g filter="url(#filter9_f_6050_2546)">
<ellipse cx="367.337" cy="371.793" rx="367.337" ry="371.793" transform="matrix(1 0 0 -1 -449.422 1202)" fill="#FFC1DF"/>
</g>
<g filter="url(#filter10_f_6050_2546)">
<path d="M706.373 -182.534C846.781 167.785 624.947 599.066 -10.1389 718.196C579.133 477.794 585.38 79.2878 530.636 -217.696L706.373 -182.534Z" fill="white" fill-opacity="0.85"/>
</g>
<g filter="url(#filter11_f_6050_2546)">
<path d="M848.438 -17.4321C1003.4 198.71 924.067 531.134 509.472 719.389C872.334 455.841 809.638 182.077 722.265 -11.9606L848.438 -17.4321Z" fill="white" fill-opacity="0.85"/>
</g>
<g filter="url(#filter12_f_6050_2546)">
<path d="M371.887 -167.495C479.777 111.981 299.33 452.043 -205.952 540.155C264.197 355.323 273.198 39.0884 232.76 -197.185L371.887 -167.495Z" fill="url(#paint3_linear_6050_2546)" fill-opacity="0.7"/>
</g>
<g filter="url(#filter13_f_6050_2546)">
<path d="M155.487 -208.957C199.707 87.3393 -50.6807 379.759 -563.006 355.342C-63.8321 277.699 -480.53 -120.79 -468.367 -360.19L155.487 -208.957Z" fill="white" fill-opacity="0.8"/>
</g>
</g>
<defs>
<filter id="filter0_f_6050_2546" x="482.753" y="-904.652" width="2053.04" height="2049.31" filterUnits="userSpaceOnUse" color-interpolation-filters="sRGB">
<feFlood flood-opacity="0" result="BackgroundImageFix"/>
<feBlend mode="normal" in="SourceGraphic" in2="BackgroundImageFix" result="shape"/>
<feGaussianBlur stdDeviation="178.232" result="effect1_foregroundBlur_6050_2546"/>
</filter>
<filter id="filter1_f_6050_2546" x="429.908" y="-76.6403" width="1612.29" height="1622.63" filterUnits="userSpaceOnUse" color-interpolation-filters="sRGB">
<feFlood flood-opacity="0" result="BackgroundImageFix"/>
<feBlend mode="normal" in="SourceGraphic" in2="BackgroundImageFix" result="shape"/>
<feGaussianBlur stdDeviation="178.232" result="effect1_foregroundBlur_6050_2546"/>
</filter>
<filter id="filter2_f_6050_2546" x="723.283" y="101.949" width="1447.6" height="1456.52" filterUnits="userSpaceOnUse" color-interpolation-filters="sRGB">
<feFlood flood-opacity="0" result="BackgroundImageFix"/>
<feBlend mode="normal" in="SourceGraphic" in2="BackgroundImageFix" result="shape"/>
<feGaussianBlur stdDeviation="178.232" result="effect1_foregroundBlur_6050_2546"/>
</filter>
<filter id="filter3_f_6050_2546" x="439.941" y="-395.928" width="1113.43" height="1292.36" filterUnits="userSpaceOnUse" color-interpolation-filters="sRGB">
<feFlood flood-opacity="0" result="BackgroundImageFix"/>
<feBlend mode="normal" in="SourceGraphic" in2="BackgroundImageFix" result="shape"/>
<feGaussianBlur stdDeviation="89.1162" result="effect1_foregroundBlur_6050_2546"/>
</filter>
<filter id="filter4_f_6050_2546" x="264.771" y="-195.665" width="768.989" height="1093.29" filterUnits="userSpaceOnUse" color-interpolation-filters="sRGB">
<feFlood flood-opacity="0" result="BackgroundImageFix"/>
<feBlend mode="normal" in="SourceGraphic" in2="BackgroundImageFix" result="shape"/>
<feGaussianBlur stdDeviation="89.1162" result="effect1_foregroundBlur_6050_2546"/>
</filter>
<filter id="filter5_f_6050_2546" x="838.315" y="-321.948" width="857.407" height="986.866" filterUnits="userSpaceOnUse" color-interpolation-filters="sRGB">
<feFlood flood-opacity="0" result="BackgroundImageFix"/>
<feBlend mode="normal" in="SourceGraphic" in2="BackgroundImageFix" result="shape"/>
<feGaussianBlur stdDeviation="62.3814" result="effect1_foregroundBlur_6050_2546"/>
</filter>
<filter id="filter6_f_6050_2546" x="990.642" y="-574.069" width="1151.24" height="1144.72" filterUnits="userSpaceOnUse" color-interpolation-filters="sRGB">
<feFlood flood-opacity="0" result="BackgroundImageFix"/>
<feBlend mode="normal" in="SourceGraphic" in2="BackgroundImageFix" result="shape"/>
<feGaussianBlur stdDeviation="106.94" result="effect1_foregroundBlur_6050_2546"/>
</filter>
<filter id="filter7_f_6050_2546" x="-1170.79" y="-904.652" width="2053.04" height="2049.31" filterUnits="userSpaceOnUse" color-interpolation-filters="sRGB">
<feFlood flood-opacity="0" result="BackgroundImageFix"/>
<feBlend mode="normal" in="SourceGraphic" in2="BackgroundImageFix" result="shape"/>
<feGaussianBlur stdDeviation="178.232" result="effect1_foregroundBlur_6050_2546"/>
</filter>
<filter id="filter8_f_6050_2546" x="-677.199" y="-76.6403" width="1612.29" height="1622.63" filterUnits="userSpaceOnUse" color-interpolation-filters="sRGB">
<feFlood flood-opacity="0" result="BackgroundImageFix"/>
<feBlend mode="normal" in="SourceGraphic" in2="BackgroundImageFix" result="shape"/>
<feGaussianBlur stdDeviation="178.232" result="effect1_foregroundBlur_6050_2546"/>
</filter>
<filter id="filter9_f_6050_2546" x="-805.887" y="101.949" width="1447.6" height="1456.52" filterUnits="userSpaceOnUse" color-interpolation-filters="sRGB">
<feFlood flood-opacity="0" result="BackgroundImageFix"/>
<feBlend mode="normal" in="SourceGraphic" in2="BackgroundImageFix" result="shape"/>
<feGaussianBlur stdDeviation="178.232" result="effect1_foregroundBlur_6050_2546"/>
</filter>
<filter id="filter10_f_6050_2546" x="-188.371" y="-395.928" width="1113.43" height="1292.36" filterUnits="userSpaceOnUse" color-interpolation-filters="sRGB">
<feFlood flood-opacity="0" result="BackgroundImageFix"/>
<feBlend mode="normal" in="SourceGraphic" in2="BackgroundImageFix" result="shape"/>
<feGaussianBlur stdDeviation="89.1162" result="effect1_foregroundBlur_6050_2546"/>
</filter>
<filter id="filter11_f_6050_2546" x="331.24" y="-195.665" width="768.989" height="1093.29" filterUnits="userSpaceOnUse" color-interpolation-filters="sRGB">
<feFlood flood-opacity="0" result="BackgroundImageFix"/>
<feBlend mode="normal" in="SourceGraphic" in2="BackgroundImageFix" result="shape"/>
<feGaussianBlur stdDeviation="89.1162" result="effect1_foregroundBlur_6050_2546"/>
</filter>
<filter id="filter12_f_6050_2546" x="-330.714" y="-321.948" width="857.407" height="986.866" filterUnits="userSpaceOnUse" color-interpolation-filters="sRGB">
<feFlood flood-opacity="0" result="BackgroundImageFix"/>
<feBlend mode="normal" in="SourceGraphic" in2="BackgroundImageFix" result="shape"/>
<feGaussianBlur stdDeviation="62.3814" result="effect1_foregroundBlur_6050_2546"/>
</filter>
<filter id="filter13_f_6050_2546" x="-776.885" y="-574.069" width="1151.24" height="1144.72" filterUnits="userSpaceOnUse" color-interpolation-filters="sRGB">
<feFlood flood-opacity="0" result="BackgroundImageFix"/>
<feBlend mode="normal" in="SourceGraphic" in2="BackgroundImageFix" result="shape"/>
<feGaussianBlur stdDeviation="106.94" result="effect1_foregroundBlur_6050_2546"/>
</filter>
<linearGradient id="paint0_linear_6050_2546" x1="1335.14" y1="467.916" x2="1509.27" y2="793.19" gradientUnits="userSpaceOnUse">
<stop stop-color="white"/>
<stop offset="1" stop-color="#391DE8"/>
</linearGradient>
<linearGradient id="paint1_linear_6050_2546" x1="1063.17" y1="56.4154" x2="1975.44" y2="908.301" gradientUnits="userSpaceOnUse">
<stop stop-color="white"/>
<stop offset="1" stop-color="white" stop-opacity="0"/>
</linearGradient>
<linearGradient id="paint2_linear_6050_2546" x1="490.852" y1="1021.09" x2="664.985" y2="1346.37" gradientUnits="userSpaceOnUse">
<stop stop-color="white"/>
<stop offset="1" stop-color="#391DE8"/>
</linearGradient>
<linearGradient id="paint3_linear_6050_2546" x1="301.837" y1="56.4154" x2="-610.432" y2="908.301" gradientUnits="userSpaceOnUse">
<stop stop-color="white"/>
<stop offset="1" stop-color="white" stop-opacity="0"/>
</linearGradient>
<clipPath id="clip0_6050_2546">
<rect width="1440" height="471" fill="white" transform="matrix(1 0 0 -1 0 471)"/>
</clipPath>
</defs>
</svg>
